<?xml version="1.0" encoding="UTF-8"?>
<!DOCTYPE svg PUBLIC "-//W3C//DTD SVG 1.1//EN" "http://www.w3.org/Graphics/SVG/1.1/DTD/svg11.dtd">
<!-- Creator: CorelDRAW -->
<svg xmlns="http://www.w3.org/2000/svg" xml:space="preserve" width="3.59999in" height="3.59999in" version="1.1" style="shape-rendering:geometricPrecision; text-rendering:geometricPrecision; image-rendering:optimizeQuality; fill-rule:evenodd; clip-rule:evenodd"
viewBox="0 0 3599.99 3599.99"
 xmlns:xlink="http://www.w3.org/1999/xlink"
 xmlns:xodm="http://www.corel.com/coreldraw/odm/2003">
 <defs>
  <style type="text/css">
   <![CDATA[
    .str1 {stroke:#CCCCCC;stroke-width:3.33;stroke-miterlimit:2.61313}
    .str4 {stroke:#074F8A;stroke-width:6.67;stroke-miterlimit:2.61313}
    .str6 {stroke:#43EBEB;stroke-width:6.67;stroke-miterlimit:2.61313}
    .str0 {stroke:#F84562;stroke-width:6.67;stroke-miterlimit:2.61313}
    .str3 {stroke:#023A5D;stroke-width:13.33;stroke-linecap:round;stroke-miterlimit:2.61313}
    .str2 {stroke:#074F8A;stroke-width:13.33;stroke-linecap:round;stroke-miterlimit:2.61313}
    .str5 {stroke:#F9C82D;stroke-width:13.33;stroke-linecap:round;stroke-miterlimit:2.61313}
    .fil5 {fill:none}
    .fil28 {fill:#FEFEFE}
    .fil0 {fill:#FEFEFE}
    .fil26 {fill:#5B5B5B}
    .fil27 {fill:#2B2A29}
    .fil25 {fill:#2B2A29}
    .fil6 {fill:#023A5D}
    .fil2 {fill:#074F8A}
    .fil12 {fill:#0B64A6}
    .fil7 {fill:#0BA687}
    .fil8 {fill:#41A2E7}
    .fil24 {fill:#43EBEB}
    .fil13 {fill:#4BA0E1}
    .fil21 {fill:#590661}
    .fil23 {fill:#6A3000}
    .fil14 {fill:#DF8D2A}
    .fil4 {fill:#E6E6E6}
    .fil10 {fill:#E86A06}
    .fil1 {fill:#F84562}
    .fil15 {fill:#F9B46F}
    .fil3 {fill:#F9C82D}
    .fil16 {fill:#FB4369}
    .fil22 {fill:#FBA986}
    .fil11 {fill:#FBDA69}
    .fil9 {fill:#FF6895}
    .fil29 {fill:white}
    .fil30 {fill:#FEFEFE;fill-rule:nonzero}
    .fil17 {fill:#F84562;fill-rule:nonzero}
    .fil19 {fill:#F84562;fill-rule:nonzero}
    .fil20 {fill:#F9C82D;fill-rule:nonzero}
    .fil18 {fill:#F9C82D;fill-rule:nonzero}
    .fil31 {fill:white;fill-rule:nonzero}
   ]]>
  </style>
 </defs>
 <g id="Layer_x0020_1">
  <metadata id="CorelCorpID_0Corel-Layer"/>
  <rect class="fil0" x="-0.01" y="-0" width="3600" height="3600"/>
  <g id="_2048347566720">
   <g>
    <path class="fil1" d="M977.96 1744.9c0,0 63.65,10.54 71.31,87.13 0,0 0,19.15 -7.66,19.15 -7.66,0 -3.83,-68.93 -45.95,-61.27l-22.97 -11.48 5.27 -33.52z"/>
    <path class="fil1" d="M664.34 1608.16c0,0 -36.29,-21.2 -20.97,-28.86 15.32,-7.66 88.07,-22.98 114.88,3.83 26.81,26.81 62.99,90.98 27.67,122.07l-46.81 -26.34 -57.44 -76.59 -17.32 5.89z"/>
    <path class="fil2" d="M670.18 1563.98c0,0 3.83,34.46 -11.49,53.61 -15.32,19.15 -61.26,68.93 -42.12,84.24 19.15,15.32 49.78,-19.14 49.78,-19.14 0,0 22.98,-22.98 30.64,0 7.66,22.97 45.94,80.41 15.31,153.17 -30.63,72.76 -72.76,99.56 -45.95,114.88 26.81,15.32 45.95,-26.8 45.95,-26.8 0,0 38.3,-87.34 135.94,-89.62 97.65,-2.28 147.43,74.3 147.43,74.3 0,0 26.8,57.44 49.78,45.95 22.98,-11.49 -15.31,-65.09 -15.31,-65.09 0,0 -38.29,-65.1 -34.46,-72.76 3.83,-7.66 0,-26.81 0,-26.81 0,0 11.48,-53.6 -65.1,-61.26l-72.75 19.15 -57.44 -38.3 -11.49 0c0,0 -19.15,-26.81 -42.12,-68.93 -22.98,-42.12 -53.61,-84.24 -76.59,-76.58z"/>
    <path class="fil3 str0" d="M800.37 1705.66c0,0 -19.15,90.93 47.87,95.24l0.66 33.39 23.75 1.11 0.48 -34.01c0,0 68.93,0.01 57.44,-84.24 0,0 -11.49,-7.66 -22.98,3.83 -11.49,11.49 -61.26,11.49 -76.58,-3.83 -15.32,-15.32 -22.98,-19.15 -30.63,-11.49z"/>
    <circle class="fil4 str1" cx="668.26" cy="1634.82" r="5.74"/>
   </g>
   <line class="fil5 str2" x1="837.41" y1="1838.58" x2="910.57" y2= "1860.81" />
   <line class="fil5 str3" x1="834.9" y1="1871.74" x2="910.7" y2= "1861.72" />
   <line class="fil5 str2" x1="834.63" y1="1871.35" x2="907.78" y2= "1893.58" />
   <line class="fil5 str3" x1="832.76" y1="1904.05" x2="908.57" y2= "1894.04" />
   <line class="fil5 str2" x1="832.6" y1="1904.33" x2="905.76" y2= "1926.56" />
   <line class="fil5 str2" x1="829.97" y1="1936.23" x2="903.13" y2= "1958.46" />
   <line class="fil5 str3" x1="829.78" y1="1936.5" x2="905.58" y2= "1926.48" />
   <line class="fil5 str3" x1="829.34" y1="1968.2" x2="905.14" y2= "1958.19" />
   <rect class="fil6" x="834.64" y="1964.07" width="57.77" height="24.95" rx="0.55" ry="0.72"/>
  </g>
  <path class="fil3" d="M1924.92 1086.98l127.22 -253.24c0,0 14.59,-33.28 28.11,-33.28 13.52,0 15.91,10.34 15.91,10.34l142.36 276.18 -313.6 0z"/>
  <path class="fil7" d="M1480.85 1698.82l0 0c73.39,0 133.43,59.69 133.43,132.66l0 223.78 -52.73 0 0 -218.89c0,-44.13 -36.31,-80.23 -80.7,-80.23l-0 0c-44.39,0 -80.7,36.1 -80.7,80.23l0 218.89 -52.73 0 0 -223.78c0,-72.96 60.04,-132.66 133.43,-132.66z"/>
  <path class="fil1" d="M1313.9 1661.51l336.09 0 0 393.85 -49.01 0 0 -218.78c0,-64.31 -52.61,-116.93 -116.93,-116.93 -64.31,0 -116.93,52.62 -116.93,116.93l0 218.78 -53.22 0 0 -393.85z"/>
  <rect class="fil3" x="1406.15" y="1516.61" width="243.84" height="144.9"/>
  <path class="fil2" d="M1424.15 1435.05l15.35 0c10.24,0 18.61,8.37 18.61,18.61l0 62.96 -52.57 0 0 -62.96c0,-10.23 8.37,-18.61 18.61,-18.61z"/>
  <path class="fil2" d="M1522.19 1435.35l15.35 0c10.24,0 18.61,8.37 18.61,18.61l0 62.96 -52.57 0 0 -62.96c0,-10.23 8.37,-18.61 18.61,-18.61z"/>
  <path class="fil1" d="M1616.63 1435.19l15.35 0c10.24,0 18.61,8.37 18.61,18.61l0 62.96 -52.57 0 0 -62.96c0,-10.23 8.37,-18.61 18.61,-18.61z"/>
  <path class="fil2" d="M1304.52 1609.65l101.63 0 0 51.86 -101.63 0c-10.24,0 -18.61,-8.37 -18.61,-18.61l0 -14.64c0,-10.23 8.37,-18.61 18.61,-18.61z"/>
  <rect class="fil8" x="1435.71" y="1461.98" width="10.99" height="30.08" rx="6.2" ry="6.2"/>
  <ellipse class="fil8" cx="1441.49" cy="1449.69" rx="5.78" ry="6.51"/>
  <rect class="fil8" x="1534.1" y="1462.72" width="10.99" height="30.08" rx="6.2" ry="6.2"/>
  <ellipse class="fil8" cx="1539.88" cy="1450.43" rx="5.78" ry="6.51"/>
  <rect class="fil9" x="1629.15" y="1465.72" width="10.99" height="30.08" rx="6.2" ry="6.2"/>
  <ellipse class="fil9" cx="1634.94" cy="1453.43" rx="5.78" ry="6.51"/>
  <rect class="fil8" transform="matrix(1.64238E-14 -0.620264 0.620264 1.64238E-14 1357.98 1630.85)" width="17.72" height="48.49" rx="10" ry="10"/>
  <ellipse class="fil8" transform="matrix(1.64238E-14 -0.620264 0.620264 1.64238E-14 1345.69 1625.07)" rx="9.32" ry="10.49"/>
  <rect class="fil10" x="1450.75" y="1542.61" width="21.55" height="94.44" rx="6.2" ry="6.2"/>
  <rect class="fil10" x="1515.85" y="1543.06" width="21.55" height="94.44" rx="6.2" ry="6.2"/>
  <rect class="fil10" x="1584.16" y="1544.44" width="21.55" height="94.44" rx="6.2" ry="6.2"/>
  <ellipse class="fil9" cx="1349.61" cy="1704.78" rx="14.24" ry="15.5"/>
  <ellipse class="fil9" cx="1378.14" cy="1690.07" rx="8.66" ry="9.43"/>
  <ellipse class="fil9" cx="1340.28" cy="1735.7" rx="8.66" ry="9.43"/>
  <ellipse class="fil11" cx="1630.77" cy="1536.88" rx="8.58" ry="8.35"/>
  <ellipse class="fil11" cx="1630.09" cy="1554.87" rx="4.48" ry="5.09"/>
  <path class="fil7" d="M2687.46 1696.55l-0 0c-72.4,0 -131.64,59.7 -131.64,132.66l0 223.78 52.03 0 0 -218.89c0,-44.13 35.82,-80.23 79.61,-80.23l0 0c43.79,0 79.61,36.1 79.61,80.23l0 218.89 52.02 0 0 -223.78c0,-72.96 -59.24,-132.66 -131.64,-132.66z"/>
  <path class="fil1" d="M2852.17 1659.24l-333.76 0 0 393.85 48.67 0 0 -218.78c0,-64.31 52.25,-116.92 116.11,-116.92 63.87,0 116.12,52.61 116.12,116.92l0 218.78 52.86 0 0 -393.85z"/>
  <rect class="fil3" x="2518.41" y="1514.34" width="242.76" height="144.9"/>
  <path class="fil2" d="M2743.41 1432.78l-15.15 0c-10.1,0 -18.35,8.26 -18.35,18.35l0 63.21 51.86 0 0 -63.21c0,-10.09 -8.26,-18.35 -18.35,-18.35z"/>
  <path class="fil2" d="M2646.25 1432.77l-15.15 0c-10.1,0 -18.35,8.26 -18.35,18.35l0 63.21 51.86 0 0 -63.21c0,-10.09 -8.26,-18.35 -18.35,-18.35z"/>
  <path class="fil1" d="M2551.89 1433.16l-15.15 0c-10.1,0 -18.35,8.26 -18.35,18.35l0 63.21 51.86 0 0 -63.21c0,-10.09 -8.26,-18.35 -18.35,-18.35z"/>
  <path class="fil2" d="M2861.18 1607.39l-100.02 0 0 51.85 100.02 0c10.24,0 18.61,-8.37 18.61,-18.61l0 -14.64c0,-10.23 -8.37,-18.6 -18.61,-18.6z"/>
  <rect class="fil8" x="2721.16" y="1459.71" width="10.84" height="30.08" rx="6.12" ry="6.2"/>
  <ellipse class="fil8" cx="2726.29" cy="1447.42" rx="5.7" ry="6.51"/>
  <rect class="fil8" x="2623.66" y="1460.14" width="10.84" height="30.08" rx="6.12" ry="6.2"/>
  <ellipse class="fil8" cx="2628.8" cy="1447.85" rx="5.7" ry="6.51"/>
  <rect class="fil9" x="2528.69" y="1463.69" width="10.84" height="30.08" rx="6.12" ry="6.2"/>
  <ellipse class="fil9" cx="2533.83" cy="1451.4" rx="5.7" ry="6.51"/>
  <rect class="fil8" transform="matrix(-1.62033E-14 -0.620264 -0.611935 1.64238E-14 2808.68 1628.58)" width="17.72" height="48.49" rx="10" ry="10"/>
  <ellipse class="fil8" transform="matrix(-1.62033E-14 -0.620264 -0.611935 1.64238E-14 2820.81 1622.8)" rx="9.32" ry="10.49"/>
  <rect class="fil10" x="2695.9" y="1540.33" width="21.26" height="94.44" rx="6.12" ry="6.2"/>
  <rect class="fil10" x="2631.67" y="1540.79" width="21.26" height="94.44" rx="6.12" ry="6.2"/>
  <rect class="fil10" x="2564.28" y="1542.17" width="21.26" height="94.44" rx="6.12" ry="6.2"/>
  <ellipse class="fil9" cx="2816.94" cy="1702.51" rx="14.05" ry="15.5"/>
  <ellipse class="fil9" cx="2788.8" cy="1687.8" rx="8.55" ry="9.43"/>
  <ellipse class="fil9" cx="2826.15" cy="1733.42" rx="8.55" ry="9.43"/>
  <ellipse class="fil11" cx="2539.56" cy="1534.61" rx="8.47" ry="8.35"/>
  <ellipse class="fil11" cx="2540.23" cy="1552.6" rx="4.42" ry="5.09"/>
  <rect class="fil2" x="1649.99" y="1303.62" width="158.59" height="751.43"/>
  <path class="fil7" d="M1733.74 1394.52l0 0c19.11,0 34.74,15.63 34.74,34.74l0 162.72 -69.49 0 0 -162.72c0,-19.11 15.63,-34.74 34.74,-34.74z"/>
  <path class="fil7" d="M1734.3 1771.47l0 0c19.11,0 34.74,15.63 34.74,34.74l0 162.72 -69.49 0 0 -162.72c0,-19.11 15.63,-34.74 34.74,-34.74z"/>
  <rect class="fil2" x="2359.82" y="1297.73" width="158.59" height="751.43"/>
  <path class="fil7" d="M2443.58 1388.62l0 0c19.11,0 34.74,15.63 34.74,34.75l0 162.72 -69.49 0 0 -162.72c0,-19.11 15.63,-34.75 34.74,-34.75z"/>
  <path class="fil7" d="M2444.13 1765.58l0 0c19.11,0 34.74,15.63 34.74,34.74l0 162.72 -69.49 0 0 -162.72c0,-19.11 15.63,-34.74 34.74,-34.74z"/>
  <rect class="fil12" x="1696.29" y="1336.24" width="31.33" height="15.47"/>
  <circle class="fil13" cx="1771.7" cy="1343.59" r="10.44"/>
  <ellipse class="fil13" cx="1772.71" cy="1691.97" rx="10.27" ry="27.54"/>
  <ellipse class="fil13" cx="1770.74" cy="1645.19" rx="11.8" ry="12.68"/>
  <rect class="fil12" x="1681.12" y="1628.14" width="33.67" height="18.8"/>
  <rect class="fil12" x="2463.61" y="1340.69" width="31.33" height="15.47"/>
  <rect class="fil12" x="2448.44" y="1632.59" width="33.67" height="18.8"/>
  <circle class="fil13" cx="2411.08" cy="1350.79" r="10.44"/>
  <ellipse class="fil13" cx="2399.54" cy="1669.55" rx="10.27" ry="27.54"/>
  <ellipse class="fil13" cx="2397.57" cy="1622.77" rx="11.8" ry="12.68"/>
  <path class="fil3" d="M1643.48 1244.36l71.64 -142.61c0,0 8.22,-18.74 15.83,-18.74 7.61,0 8.96,5.82 8.96,5.82l80.16 155.52 -176.59 0z"/>
  <rect class="fil1" x="1619.69" y="1244.11" width="223.34" height="60.39" rx="12.41" ry="12.41"/>
  <rect class="fil1" x="2323.83" y="1238.93" width="223.34" height="60.39" rx="12.41" ry="12.41"/>
  <ellipse class="fil9" cx="2381.6" cy="1262.11" rx="26.53" ry="8.63"/>
  <ellipse class="fil9" cx="2435.07" cy="1262.93" rx="9.67" ry="10.28"/>
  <ellipse class="fil9" cx="1780.63" cy="1264.8" rx="26.53" ry="8.63"/>
  <ellipse class="fil9" cx="1730.18" cy="1262.91" rx="9.67" ry="10.28"/>
  <ellipse class="fil11" cx="1735.53" cy="1141.9" rx="7.46" ry="8.55"/>
  <ellipse class="fil11" transform="matrix(0.550828 -0.285159 0.285159 0.550828 1752.63 1176.25)" rx="15.79" ry="24.81"/>
  <path class="fil3" d="M2529.99 1239.3l-75.18 -142.6c0,0 -8.62,-18.74 -16.61,-18.74 -7.99,0 -9.4,5.82 -9.4,5.82l-84.12 155.52 185.31 0z"/>
  <ellipse class="fil11" cx="2433.39" cy="1136.83" rx="7.83" ry="8.55"/>
  <ellipse class="fil11" transform="matrix(-0.578029 -0.285159 -0.299241 0.550828 2415.45 1171.19)" rx="15.79" ry="24.81"/>
  <rect class="fil1" x="1902.32" y="1061.95" width="361.29" height="45.92" rx="12.24" ry="12.41"/>
  <ellipse class="fil9" cx="2077.86" cy="1079.95" rx="26.53" ry="8.63"/>
  <ellipse class="fil9" cx="2035.79" cy="1077.43" rx="6.05" ry="6.43"/>
  <ellipse class="fil9" cx="2120.16" cy="1077.43" rx="6.05" ry="6.43"/>
  <path class="fil2" d="M2003.11 1008.58l7.3 0c6.82,0 12.4,5.58 12.4,12.4l0 41.13 -32.1 0 0 -41.13c0,-6.82 5.58,-12.4 12.4,-12.4z"/>
  <path class="fil2" d="M2082.48 1008.31l7.3 0c6.82,0 12.4,5.58 12.4,12.4l0 41.13 -32.1 0 0 -41.13c0,-6.82 5.58,-12.4 12.4,-12.4z"/>
  <path class="fil2" d="M2160.85 1008.95l7.3 0c6.82,0 12.4,5.58 12.4,12.4l0 41.14 -32.09 0 0 -41.14c0,-6.82 5.58,-12.4 12.4,-12.4z"/>
  <rect class="fil8" x="2011.87" y="1029.35" width="4.28" height="14.72" rx="6.2" ry="6.2"/>
  <ellipse class="fil8" cx="2013.37" cy="1022.75" rx="2.65" ry="2.59"/>
  <rect class="fil8" x="2091.28" y="1027.25" width="4.28" height="14.72" rx="6.2" ry="6.2"/>
  <ellipse class="fil8" cx="2092.79" cy="1020.65" rx="2.65" ry="2.59"/>
  <rect class="fil8" x="2169" y="1028.24" width="4.28" height="14.72" rx="6.2" ry="6.2"/>
  <ellipse class="fil8" cx="2170.51" cy="1021.64" rx="2.65" ry="2.59"/>
  <path class="fil3" d="M1922.95 1107.88l323.91 0 0 309.6 -56.08 0 0 -130.88c0,-54.58 -44.66,-99.24 -99.24,-99.24l-13.27 0c-54.58,0 -99.24,44.66 -99.24,99.24l0 130.88 -56.08 0 0 -309.6z"/>
  <rect class="fil1" x="1909.34" y="1297.25" width="30.29" height="34.13" rx="6.2" ry="6.2"/>
  <rect class="fil1" x="2231.72" y="1295.57" width="30.29" height="34.13" rx="6.2" ry="6.2"/>
  <ellipse class="fil11" cx="1998.17" cy="1153.8" rx="14.14" ry="13.21"/>
  <ellipse class="fil11" cx="2026.6" cy="1132.04" rx="4.66" ry="4.51"/>
  <circle class="fil11" cx="1983.87" cy="1186.43" r="5.44"/>
  <ellipse class="fil11" cx="2175.38" cy="1158.33" rx="14.18" ry="13.77"/>
  <circle class="fil11" cx="2187.7" cy="1187.92" r="5.75"/>
  <ellipse class="fil11" cx="2145.38" cy="1135.73" rx="5.75" ry="5.34"/>
  <rect class="fil14" x="1808.57" y="1368.91" width="114.38" height="48.57"/>
  <ellipse class="fil15" cx="1868.54" cy="1385.44" rx="16.83" ry="5.51"/>
  <ellipse class="fil15" cx="1903.66" cy="1384.96" rx="5.51" ry="5.61"/>
  <rect class="fil14" x="2247.32" y="1369.6" width="112.5" height="48.57"/>
  <ellipse class="fil15" cx="2298.25" cy="1384.54" rx="16.83" ry="5.51"/>
  <ellipse class="fil15" cx="2265.17" cy="1384.46" rx="5.51" ry="5.61"/>
  <rect class="fil1" x="1808.57" y="1417.48" width="551.25" height="96.87"/>
  <path class="fil16" d="M2070.3 1596.84l31.64 0c119.24,0 216.79,97.56 216.79,216.79l0 241.15 -51.57 0 0 -235.77c0,-94.28 -77.13,-171.41 -171.41,-171.41l-19.26 0c-94.28,0 -171.41,77.13 -171.41,171.41l0 235.77 -51.57 0 0 -241.15c0,-119.24 97.55,-216.79 216.79,-216.79z"/>
  <path class="fil3" d="M1808.57 1514.35l551.25 0 0 544.33 -55.67 0 0 -237.24c0,-112.58 -93.42,-204.69 -207.6,-204.69l-23.33 0c-114.18,0 -207.6,92.11 -207.6,204.69l0 237.24 -57.05 0 0 -544.33z"/>
  <ellipse class="fil11" cx="1956.21" cy="1584.47" rx="19.02" ry="17.27"/>
  <ellipse class="fil11" cx="2195.08" cy="1580.69" rx="19.02" ry="17.27"/>
  <circle class="fil11" cx="1927.15" cy="1616.76" r="5.72"/>
  <circle class="fil11" cx="1998.91" cy="1576" r="5.72"/>
  <circle class="fil11" cx="2228.79" cy="1616.49" r="5.72"/>
  <circle class="fil11" cx="2155.65" cy="1575.13" r="5.72"/>
  <rect class="fil10" x="2051.5" y="1576.56" width="60.51" height="38.75" rx="6.2" ry="6.2"/>
  <polygon class="fil2" points="2087.27,1138.42 2099,1174.76 2137.17,1174.68 2106.25,1197.06 2118.11,1233.35 2087.27,1210.85 2056.43,1233.35 2068.3,1197.06 2037.37,1174.68 2075.55,1174.76 "/>
  <path class="fil2" d="M1929.96 1008.58l7.3 0c6.82,0 12.4,5.58 12.4,12.4l0 41.13 -32.09 0 0 -41.13c0,-6.82 5.58,-12.4 12.4,-12.4z"/>
  <rect class="fil8" x="1938.72" y="1029.35" width="4.28" height="14.72" rx="6.2" ry="6.2"/>
  <ellipse class="fil8" cx="1940.23" cy="1022.75" rx="2.65" ry="2.59"/>
  <path class="fil2" d="M2226.57 1008.79l7.3 0c6.82,0 12.4,5.58 12.4,12.4l0 41.14 -32.09 0 0 -41.14c0,-6.82 5.58,-12.4 12.4,-12.4z"/>
  <rect class="fil8" x="2235.33" y="1029.56" width="4.28" height="14.72" rx="6.2" ry="6.2"/>
  <ellipse class="fil8" cx="2236.84" cy="1022.96" rx="2.65" ry="2.59"/>
  <path class="fil2" d="M660.76 2372.6l8.93 83.7c0,0 -132.6,45.36 -214.43,22.37 0,0 -35.71,-139.9 -32.63,-470.44 0,0 235.29,-125.84 356.09,-14.8 0,0 159.76,-57.43 214.32,7.66 0,0 -44.99,248.62 -43.27,282.88l16.56 0c0,0 57.31,-275.69 139.12,-306.12 0,0 -37.86,-58.52 16.7,-100.64 0,0 35.91,2.98 67.08,22.13 31.17,19.15 35.07,42.12 35.07,42.12 0,0 38.97,0 46.76,11.49 7.79,11.49 44.63,-20.85 58.45,22.97 13.83,43.82 9.44,60.17 9.44,60.17l8.28 87.05 -8.28 -87.05c0,0 148.97,-103.93 176.24,-96.27l32.09 101.13 98.76 -137.95c1.24,-1.4 144.7,38.09 198.65,113.03 0,0 198.35,-161.13 397.81,-32.62 0,0 125.05,-111.64 242.98,-12.96 0,0 147.67,-77.07 284.06,11 0,0 331.22,-76.58 381.88,-15.31 50.66,61.27 12.61,157.63 4.81,184.44 -7.8,26.81 -26.19,46.48 -26.19,46.48l-79.94 -1.17c0,0 9.36,183.58 32.31,266.35 -10.77,1.84 -139.08,48.12 -239.03,10.98 0,0 -42.67,67.86 -138.86,42.59 0,0 -299.75,18.1 -358.47,-5.61 0,0 -112.39,52.43 -125.96,-19.46 0,0 -125.39,-59.01 -27.28,-149.34l-15.77 -15.1 -78.76 38.23 15.17 62.13c0,0 -78.03,54.44 -221.91,31.41 0,0 -32.3,-123.78 -35.5,-227.79l-2.2 -171.62c0,0 -168.92,163.3 -166.8,245.41 2.13,82.11 12.56,138.17 12.56,138.17 0,0 -110.77,71.18 -200.39,39.41 0,0 -146.64,9.06 -189.61,-4 -42.97,-13.07 -129.7,-80.67 -137.5,-153.43 0,0 -31.04,121.21 -48.48,144.23 -16.01,21.14 -341.33,35.07 -390.22,4.94 -2.34,-20.5 -4.11,-64.12 -10.46,-116.77 0,0 -39.85,21.71 -62.2,15.96z"/>
  <path class="fil17" d="M809.98 2151.13c0,-71.78 -50.77,-142.56 -166.98,-143.64 -50.69,0 -130.97,22.17 -165.81,41.18 -1.08,157.39 10.5,344.38 23.26,383.48l2.08 7.42c27.51,4.25 84.54,-5.25 121.46,-16.93 -7.5,-26.59 -12.42,-53.85 -14.76,-81.36 87.7,-20.09 160.56,-56.02 190.16,-136.3l0 1.08c7.09,-17.42 10.67,-36.09 10.59,-54.94l0 0zm-29.59 47.6c-1.75,4.58 -3.67,9.09 -5.83,13.5 -1.17,0.08 -2.33,-0.42 -3,-1.42 -0.75,-0.92 -0.91,-2.17 -0.5,-3.25 5.34,-14.92 8.09,-30.59 8.26,-46.35 0,-54.19 -37.26,-117.96 -142.31,-119.04 -42.93,0 -105.62,15.67 -138.72,30.43 0,-2.58 0,-5.17 0,-7.75 34.52,-14.67 96.12,-29.68 138.72,-29.68 110.3,1.08 149.39,68.61 149.39,126.05 -0.09,9.17 -1,18.34 -2.83,27.35 -0.92,3.42 -2,6.83 -3.17,10.17l0 0zm-203.91 136.05c-0.17,-2 1.25,-3.67 3.25,-3.83 1.92,-0.17 3.67,1.25 3.75,3.25 1.75,21.09 4.42,50.77 8.92,74.78 -2.25,0.58 -4.59,1.17 -6.92,1.75 -4.58,-24.43 -7.33,-54.6 -9,-75.94l0 0zm108.8 -175.15c-1,32.76 -32.76,51.77 -76.53,60.19 0,-31.68 1,-63.36 4.75,-87.7 10.84,-3.92 22.26,-6.09 33.76,-6.33 23.26,0 38.02,11.67 38.02,33.85l0 0zm-99.62 82.87l0 7.83 8.83 -0.75c29.51,-4.33 62.86,-13.92 83.28,-34.43 11.84,-8.67 20.59,-20.76 25.26,-34.59 -6.25,40.43 -43.19,66.69 -107.71,76.03l-12.92 1.08c-0.08,0 -0.17,0 -0.33,0 -1.92,0 -3.5,-1.58 -3.5,-3.5l0 -11.67c-1.25,-49.1 0.83,-87.04 6.42,-115.8 0.17,-1.25 1.08,-2.33 2.33,-2.75 1.17,-0.42 2.5,-0.17 3.5,0.67 0.92,0.83 1.33,2.17 1.09,3.42 -5.5,28.26 -7.5,65.69 -6.25,114.46l0 0z"/>
  <path id="_1" class="fil18" d="M1067.91 2313.94c-2.83,-7.33 -6.67,-14.17 -11.33,-20.51 -0.33,0.17 -0.67,0.25 -1,0.42 -1.92,-2.33 -4.09,-4.5 -6.5,-6.42 -36.93,15.84 -87.62,29.59 -153.14,30.59 -1.09,-8.42 -1.09,-24.26 -1.09,-43.27 0,-56.02 9.5,-150.06 33.85,-246.18 -21.17,-3.17 -42.26,-6.33 -58.1,-6.33 -37.02,0 -78.2,8.5 -97.2,15.84 -9.5,29.59 -12.67,98.29 -12.67,172.23 0,87.7 4.25,182.74 11.59,219.75l1.09 8.42c16.92,3.17 76.03,8.5 135.22,8.5 57.11,0 122.55,-5.33 171.15,-24.34 10.09,-29.43 3.09,-77.11 -11.84,-108.71l0 0zm-30.26 12.09c-48.6,18.01 -101.79,26.76 -162.48,26.76 -1.5,0 -2.83,-0.92 -3.33,-2.33 -5.17,-14.34 -7.59,-35.85 -7.59,-65.69 0.67,-76.2 9.59,-152.06 26.68,-226.33 -8.75,-1.17 -17.59,-1.67 -26.34,-1.42 -28.18,0 -58.77,3.5 -75.78,8.59 0.42,-2.75 0.92,-5.34 1.42,-7.76 24.43,-5.5 49.35,-8.17 74.36,-7.92 10.42,-0.33 20.93,0.42 31.26,2.17 0.91,0.17 1.83,0.67 2.33,1.5 0.5,0.83 0.67,1.83 0.5,2.75 -17.5,74.94 -26.67,151.56 -27.43,228.42 0,27.43 2.08,47.35 6.42,60.94 59.86,-0.25 112.21,-9.17 159.98,-27.26 1.42,-0.5 3.08,-0.08 4,1.17 14.17,17.93 25.59,56.86 22.51,86.37 -2.42,0.83 -4.84,1.67 -7.42,2.42 4.09,-26.93 -5.92,-63.94 -19.09,-82.37l0 0z"/>
  <path class="fil4" d="M1100.12 2013.68c0,0 -14.7,-3.53 -27.59,25.98 -12.89,29.52 -77.54,185.68 -111.7,354.35 0,0 -12.26,40.44 2.36,43.46 14.61,3.02 17.41,-30.66 17.41,-30.66 0,0 54.27,-242.89 115.87,-363.48l16.56 -26.04c0,0 -7.9,-3.56 -12.92,-3.62z"/>
  <path class="fil4" d="M1155.91 2088.75c0,0 -76.24,285.35 -81.14,312.3 -4.9,26.95 -5.4,28.17 0.05,34.82 5.45,6.66 16.78,-4.76 23.07,-39.93 6.29,-35.18 75.85,-285.96 75.85,-285.96l-17.84 -21.23z"/>
  <rect class="fil4" x="1058.14" y="2112.25" width="94.9" height="13.09" rx="10.36" ry="10.36"/>
  <rect class="fil4" x="1029.35" y="2176.48" width="103.62" height="13.09" rx="11.32" ry="10.36"/>
  <rect class="fil4" x="1012.2" y="2246.28" width="103.62" height="13.09" rx="11.32" ry="10.36"/>
  <rect class="fil4" x="996.88" y="2315.2" width="103.62" height="13.09" rx="11.32" ry="10.36"/>
  <path class="fil19" d="M2253.43 2132.48c0,-71.78 -50.77,-142.56 -166.98,-143.64 -50.69,0 -130.97,22.17 -165.81,41.18 -1.08,157.39 10.5,344.38 23.26,383.48l2.08 7.42c27.51,4.25 84.54,-5.25 121.46,-16.93 -7.5,-26.59 -12.42,-53.85 -14.76,-81.36 87.7,-20.09 160.56,-56.02 190.16,-136.3l0 1.08c7.09,-17.42 10.67,-36.09 10.59,-54.94l0 0zm-29.59 47.6c-1.75,4.58 -3.67,9.09 -5.83,13.5 -1.17,0.08 -2.33,-0.42 -3,-1.42 -0.75,-0.92 -0.91,-2.17 -0.5,-3.25 5.34,-14.92 8.09,-30.59 8.26,-46.35 0,-54.19 -37.26,-117.96 -142.31,-119.04 -42.93,0 -105.62,15.67 -138.72,30.43 0,-2.58 0,-5.17 0,-7.75 34.52,-14.67 96.12,-29.68 138.72,-29.68 110.3,1.08 149.39,68.61 149.39,126.05 -0.09,9.17 -1,18.34 -2.83,27.35 -0.92,3.42 -2,6.83 -3.17,10.17l0 0zm-203.91 136.05c-0.17,-2 1.25,-3.67 3.25,-3.83 1.92,-0.17 3.67,1.25 3.75,3.25 1.75,21.09 4.42,50.77 8.92,74.78 -2.25,0.58 -4.59,1.17 -6.92,1.75 -4.58,-24.43 -7.33,-54.6 -9,-75.94l0 0zm108.8 -175.15c-1,32.76 -32.76,51.77 -76.53,60.19 0,-31.68 1,-63.36 4.75,-87.7 10.84,-3.92 22.26,-6.09 33.76,-6.33 23.26,0 38.02,11.67 38.02,33.85l0 0zm-99.62 82.87l0 7.83 8.83 -0.75c29.51,-4.33 62.86,-13.92 83.28,-34.43 11.84,-8.67 20.59,-20.76 25.26,-34.59 -6.25,40.43 -43.19,66.69 -107.71,76.03l-12.92 1.08c-0.08,0 -0.17,0 -0.33,0 -1.92,0 -3.5,-1.58 -3.5,-3.5l0 -11.67c-1.25,-49.1 0.83,-87.04 6.42,-115.8 0.17,-1.25 1.08,-2.33 2.33,-2.75 1.17,-0.42 2.5,-0.17 3.5,0.67 0.92,0.83 1.33,2.17 1.09,3.42 -5.5,28.26 -7.5,65.69 -6.25,114.46l0 0z"/>
  <path class="fil20" d="M1750.25 2078.86c9.5,-9.5 22.18,-24.26 27.43,-30.6 -11.59,-26.43 -78.11,-67.61 -121.46,-72.86 -28.51,34.85 -92.95,117.21 -119.38,179.57 -20.09,-40.18 -40.18,-101.46 -56.02,-152.14 -15.84,5.25 -88.7,40.18 -124.63,77.11 13.17,61.77 78.2,156.89 124.63,205.5 -1,24.84 -2.08,43.85 -2.08,59.69 -0.75,30.43 3.58,60.77 12.67,89.78 19.51,5.92 39.85,8.84 60.19,8.42 25.76,0.17 51.11,-6 73.94,-17.93 -9.59,-46.93 -14.17,-94.7 -13.75,-142.64 19.09,-67.61 94.04,-154.22 138.47,-203.91l0 0zm-91.04 -74.53c31.35,6.5 72.03,28.43 87.54,47.02l-4.75 5.33c-13.92,-17.51 -54.94,-39.6 -85.12,-45.6 -0.75,-0.17 -1.5,-0.67 -2,-1.33 1.5,-1.83 2.92,-3.67 4.33,-5.42l0 0zm-201.24 31.6c0.92,-0.33 1.83,-0.17 2.67,0.25 0.83,0.42 1.5,1.17 1.75,2.08 10.26,33.35 38.18,117.46 75.7,178.74 0.75,1.09 0.83,2.5 0.25,3.67 -0.59,1.17 -1.83,1.92 -3.09,1.92 -1.33,0.08 -2.58,-0.67 -3.17,-1.83 -37.93,-62.02 -66.11,-146.81 -76.44,-180.4 -0.58,-1.92 0.5,-3.83 2.33,-4.42l0 0zm122.13 250.51c0.08,-1.92 1.67,-3.5 3.59,-3.5l0.08 0c0.92,0.08 1.83,0.41 2.5,1.08 0.58,0.75 0.92,1.67 0.92,2.58 -0.58,43.43 2.5,86.87 9.25,129.8 -2.08,0.67 -4.42,1.25 -6.83,1.83 -6.92,-43.6 -10.09,-87.7 -9.5,-131.8l0 0z"/>
  <path class="fil1" d="M1082.87 2022.46c0,0 77.61,23.02 88.56,167.03 10.95,144.01 100.04,232.37 148.6,246.94l164.68 2.26c0,0 20.2,-23.85 -14.32,-38.17 -34.52,-14.32 -116.36,-17.5 -169.78,-226.32 0,0 -38.48,-255.63 -132.15,-133.89l-25.69 0.33c0,0 -37.63,-50.58 -59.91,-18.18z"/>
  <path class="fil5 str4" d="M1195.75 2042.52c0,0 40.02,-20.01 60.02,90.04 20.01,110.05 50.02,240.1 160.07,285.12"/>
  <g id="_2048347548192">
   <ellipse class="fil7" cx="2519.72" cy="2404.99" rx="297.59" ry="68.4"/>
   <ellipse class="fil2" cx="2519.72" cy="2399.56" rx="257.38" ry="54.46"/>
   <ellipse class="fil7" cx="2519.72" cy="2394.72" rx="232.26" ry="44.78"/>
   <rect class="fil7" transform="matrix(1.83463 0.782262 -1.17285 1.22365 2311.63 2443.81)" width="11.67" height="35" rx="3.33" ry="3.33"/>
   <rect class="fil7" transform="matrix(1.70418 -0.904049 1.35545 1.13664 2707.42 2453.93)" width="11.67" height="35" rx="3.33" ry="3.33"/>
  </g>
  <path class="fil18" d="M2389.15 1985.38c-104.25,-1.71 -162.44,95.55 -163.33,191.09 -0.89,88.62 43.45,175.46 159.83,175.46 102.47,0 156.34,-66 158.95,-172.86 2.6,-92.94 -56.48,-191.91 -155.45,-193.7l0 0zm-6.99 254.49c-4.59,0.41 -9.19,0 -13.64,-1.17 -6.65,-2.47 -12.75,-6.3 -17.96,-11.17 -11.04,-12.33 -16.18,-32.28 -16.18,-52.78 0,-38.24 18.23,-78.2 52.09,-79.92 28.72,-0.89 45.17,36.46 45.17,73.82 0.07,34.75 -14.74,68.61 -49.48,71.21l0 0zm-62.65 -91.43c-3.02,11.24 -4.52,22.89 -4.52,34.54 0,27.96 8.43,51.89 23.1,65.73 10.69,10.15 24.4,14.8 40.72,13.91 14.94,-0.55 28.99,-6.85 39.34,-17.61 12.95,-9.94 21.66,-24.95 26.39,-42.08 -2.26,12.47 -6.85,24.4 -13.57,35.16 -11.17,18.09 -30.57,29.4 -51.81,30.36 -1.44,0.07 -2.88,0.07 -4.32,0.07 -15.15,0.41 -29.75,-5.21 -40.71,-15.56 -15.83,-14.94 -24.88,-40.44 -24.88,-69.98 0,-33.52 11.93,-67.78 35.02,-86.29 -12.61,13.16 -20.91,31.74 -24.74,51.75l0 0zm156.41 157.37c2.19,-2.06 4.31,-4.25 6.3,-6.51 23.37,-26.32 35.85,-64.02 37.15,-112.06 1.58,-50.58 -16.38,-100.69 -47.98,-133.93 -22.48,-24.47 -54.01,-38.72 -87.26,-39.41 -0.89,0 -1.71,0 -2.6,0 -32.83,-0.34 -64.5,12.47 -87.94,35.5 -21.45,20.9 -37.29,50.24 -45.65,83.28 7.68,-36.6 24.47,-70.67 49.83,-94.72 24.19,-20.15 54.97,-30.78 86.5,-29.81 34.82,0.69 67.79,15.56 91.37,41.19 32.63,34.34 51.2,85.95 49.56,138.11 -0.34,15.28 -2.06,30.5 -5.21,45.44 -8.09,30.91 -22.89,55.59 -44.07,72.93l0 0z"/>
  <path id="_1_0" class="fil19" d="M2725.2 2220.75c47.7,-21.25 68.61,-56.41 68.61,-99.86 0,-52.98 -41.74,-117.28 -123.37,-126.8 -10.42,-0.89 -21.73,-1.71 -33.86,-1.71 -41.12,0.48 -81.97,6.37 -121.59,17.34 -5.76,55.72 -8.63,111.65 -8.7,167.65 0,67.72 4.32,129.41 15.63,170.26l1.78 5.21 4.32 0.82c13.02,3.5 62.51,-0.82 106.85,-9.53 -5.21,-30.37 -9.59,-55.59 -11.31,-85.13 1.71,0 4.31,-1.71 5.21,-1.71 18.23,57.3 71.21,95.55 132.01,104.18 38.24,-33.86 48.67,-107.68 48.67,-107.68 -38.25,2.61 -68.61,-10.42 -84.24,-33.04l0 0zm-127.76 31.05c-0.07,-1.64 1.17,-3.02 2.81,-3.08 1.58,-0.07 2.95,1.17 3.02,2.74 1.51,29.81 3.09,54.97 7.41,79.37 -1.92,0.41 -3.84,0.76 -5.76,1.1 -4.32,-24.74 -5.96,-50.1 -7.47,-80.13l0 0zm2.94 -54.56c-1.65,0 -2.94,-1.3 -2.94,-2.95l0 -8.7c-0.76,-30.5 -0.34,-63.13 7.95,-94.52 0.41,-1.58 1.99,-2.47 3.56,-2.06 1.51,0.41 2.47,1.99 2.06,3.57 -8.16,30.63 -8.5,62.78 -7.75,92.94l0 5.89 5.83 0c28.24,-0.55 47.64,-9.8 59.97,-22.62 10.76,-8.3 18.65,-19.67 22.55,-32.63 -4.73,29.13 -28.79,60.11 -82.52,61.07l-8.7 0zm26.59 -99.8c7.88,-2.47 16.11,-3.91 24.33,-4.32 17.41,0 27.83,9.53 25.22,31.25 -2.67,20.84 -19.54,40.37 -54.28,43.87 -0.48,-26.04 0,-50.37 4.73,-70.8l0 0zm36.46 -74.85c-4.39,-0.41 -19.88,-1.72 -31.8,-1.72 -34.34,0.34 -68.54,4.66 -101.85,13.02 0.13,-2.06 0.27,-4.11 0.48,-6.17 33.18,-8.09 67.17,-12.33 101.37,-12.68 12.2,0 27.89,1.37 32.42,1.78 67.37,7.06 109.05,63.81 109.05,112.34 0,1.58 -1.3,2.88 -2.95,2.88 -1.57,0 -2.88,-1.3 -2.88,-2.88 0,-45.99 -39.69,-99.8 -103.84,-106.58l0 0zm92.12 319.81c-0.69,-0.14 -1.3,-0.28 -1.99,-0.41 13.57,-19.33 23.24,-49.01 26.25,-59.01 -38.52,-3.02 -70.26,-26.19 -87.46,-64.02 -0.41,-0.96 -0.34,-2.06 0.27,-2.94 0.62,-0.82 1.65,-1.3 2.67,-1.24 1.03,0.14 1.92,0.82 2.4,1.78 16.8,36.94 48.19,59.15 86.09,60.8 0.82,0.07 1.64,0.48 2.19,1.23 0.14,0.28 0.27,0.55 0.34,0.82 -4.52,14.33 -15.63,45.85 -30.78,62.99l0 0z"/>
  <ellipse class="fil1" cx="2634.74" cy="2141.49" rx="62.75" ry="77.26"/>
  <g id="_2048347546656">
   <path class="fil5 str5" d="M2321.7 2307.32c0,0 -6.87,57.75 -13.75,56.37"/>
   <path class="fil5 str5" d="M2444.21 2303.74c0,0 3.54,59.25 17.32,60.28"/>
   <ellipse class="fil3" cx="2384.46" cy="2170" rx="93.65" ry="126.61"/>
  </g>
  <path class="fil18" d="M3098.8 1995.6c-21.43,-2.25 -42.93,-3.33 -64.44,-3.25 -98.29,0 -219.75,21.17 -267.27,42.27 -7.42,53.94 5.25,106.7 25.35,140.55 20.76,-11.5 43.02,-20.42 66.02,-26.43 -1.08,18.51 -1.58,37.52 -1.58,57.02 0,86.61 9.5,181.74 26.43,233.5 10.5,3.17 31.68,5.25 52.77,5.25 30.93,0.08 61.77,-3.42 91.95,-10.59 -18.01,-73.86 -26.43,-176.4 -26.43,-272.52l0 -25.35c20.09,-1.08 28.51,-1.08 46.44,-1.08 12.75,0 33.85,2.17 52.85,3.17 11.09,-25.34 16.84,-52.61 16.93,-80.28 0,-25.34 -6.33,-49.6 -19.01,-62.27zm-126.8 175.9l0 -45.44c0,-2 1.58,-3.58 3.5,-3.58 2,0 3.59,1.58 3.59,3.58l0 45.44c0,71.03 3.59,170.4 20.17,247.26 -2.25,0.42 -4.58,0.75 -7,1.09 -16.59,-77.45 -20.26,-177.07 -20.26,-248.35l0 0zm110.88 -57.02c3.75,-15.17 5.58,-30.85 5.33,-46.6 0.25,-13.25 -1.92,-26.43 -6.25,-38.93 -17.51,-1.59 -35.02,-2.17 -52.52,-1.83 -92.62,0 -197.83,17.84 -244.59,34.76 0.17,-2.5 0.42,-5.09 0.67,-7.75 48.77,-16.76 152.56,-34.1 243.93,-34.1 18.42,-0.42 36.93,0.33 55.35,2.08 1.17,0.17 2.17,0.92 2.67,1.92 4.67,9.34 7.84,26.93 7.84,43.85 0,8.17 -0.42,16.34 -1.25,24.51 -1.17,7.67 -3.17,15.26 -5.83,22.51 -1.75,-0.08 -3.59,-0.25 -5.33,-0.33l0 -0.08z"/>
  <rect class="fil4" x="981.56" y="2380.3" width="103.62" height="13.09" rx="11.32" ry="10.36"/>
  <g id="_2048347542000">
   <path class="fil21" d="M1186.48 2077.56l-18.78 16.83c0,0 29.13,35.47 33.43,72.78l66 -21.4 -27.88 -60.15 -52.76 -8.07z"/>
   <path class="fil22" d="M1270.72 2013.02c0,0 5.36,77.56 -25.78,82.17 -31.14,4.61 -39.93,-5.1 -39.93,-5.1 0,0 -8.48,-15.89 -14.8,-13.11 -6.32,2.77 -13.33,-4.04 -12.29,-13.12 1.04,-9.09 15.55,-51.63 15.55,-51.63l77.24 0.8z"/>
   <path class="fil23" d="M1181.43 2067.26c0,0 -35.61,-29.61 -11.84,-71.7 23.76,-42.08 72.32,-24.18 77.87,-11.54 5.55,12.65 18.66,-2.15 16.04,-11.56 -2.62,-9.41 60.65,82.66 -51.86,46.46 0,0 4.8,28.46 -7.38,24.75 -12.18,-3.7 -21.59,-1.09 -12.96,11.71 8.63,12.8 -9.87,11.87 -9.87,11.87z"/>
   <path class="fil22" d="M1294.09 2162.59c9.24,9.09 26.01,25.24 32.21,35.63 0,0 10.03,-14.96 19.12,-11.41 9.09,3.55 20.5,22.67 -23.61,39 0,0 -14.08,-30.18 -47.27,-44.94l19.54 -18.29z"/>
   <path class="fil22" d="M1252.76 2185.24c0,0 29.12,35.47 31.43,51.05 0,0 18.97,-8.31 21.74,-2 2.78,6.32 11.25,22.2 -26.37,32.68 0,0 -22.65,-41.33 -43.3,-60.92l16.51 -20.81z"/>
   <path class="fil22" d="M1174.12 2088.63c0,0 -25.53,-44.67 -34.47,-51.3 -8.94,-6.63 -14.8,-13.11 -14.8,-13.11 0,0 -2.62,-9.41 3.39,-6.01 6.01,3.4 -5.7,-9.56 0.46,-9.25 6.17,0.31 5.86,6.48 5.86,6.48 0,0 -5.54,-12.65 0.62,-12.33 6.17,0.31 5.54,12.65 5.54,12.65 0,0 0.78,-15.41 3.71,-12.18 2.93,3.24 2.46,12.49 2.46,12.49 0,0 3.35,-3.79 9.41,-2.62 0,0 -0.78,15.42 7.85,28.22 8.63,12.8 19.72,38.09 19.72,38.09l-9.76 8.89z"/>
   <path class="fil24" d="M1201.12 2167.17c0,0 13.71,34.7 25.73,41.49l73.25 -42.68c0,0 -14.64,-16.2 -32.98,-20.21l-66 21.4z"/>
   <g>
    <path class="fil23" d="M1126.41 1906.8c0,0 -21.77,63.82 54.86,76.96 0,0 11.27,-39.62 -16.02,-50.27 -27.28,-10.65 -38.84,-26.69 -38.84,-26.69z"/>
    <path class="fil5 str6" d="M1168.44 1990.73c0,0 11.53,-17.3 23.07,-20.19"/>
   </g>
  </g>
  <g id="_2048347537584">
   <path class="fil25" d="M2320.62 2087.3c0,0 9.32,-22.46 39.53,-10.19 0,0 -27.42,-3.4 -39.53,10.19z"/>
   <path class="fil25" d="M2461.23 2087.7c0,0 -8.1,-22.9 -39.89,-10.63 0,0 27.15,-2.96 39.89,10.63z"/>
   <path class="fil25" d="M2346.44 2096.47c18.65,0 33.76,25.48 33.76,45.46 0,19.98 -6.03,28.41 -14.2,36.71 -16.56,-5.1 -30.4,-3.3 -40.86,-1.19 -7.53,-8.34 -12.46,-15.9 -12.46,-35.52 0,-19.63 15.12,-45.46 33.76,-45.46z"/>
   <path class="fil0" d="M2347.5 2098.89c17.63,0 31.93,23.61 31.93,42.99 0,19.38 -6.2,28.74 -14.87,36.43 -14.15,-4 -26.42,-3.87 -36.15,-1.96 -7.8,-7.84 -12.85,-20.36 -12.85,-34.47 0,-23.74 14.3,-42.99 31.93,-42.99z"/>
   <path class="fil25" d="M2433.28 2095.69c-18.6,0 -33.68,25.48 -33.68,45.46 0,19.98 6.02,28.41 14.17,36.71 16.52,-5.09 30.22,-3.76 40.6,-1.24 7.51,-8.34 12.59,-15.84 12.59,-35.47 0,-19.63 -15.08,-45.46 -33.68,-45.46z"/>
   <path class="fil0" d="M2432.23 2098.12c-17.59,0 -31.85,23.61 -31.85,42.99 0,19.38 6.19,28.74 14.83,36.43 14.12,-4 26.35,-3.87 36.06,-1.96 7.78,-7.84 12.81,-20.36 12.81,-34.47 0,-23.74 -14.26,-42.99 -31.85,-42.99z"/>
   <path class="fil26" d="M2347.43 2117.28c13.39,0 24.24,14.74 24.24,32.94 0,11.25 -4.15,21.18 -10.48,27.12 -10.16,-2.95 -22.76,-1.94 -28.72,-1.2 -5.65,-6.03 -9.28,-15.4 -9.28,-25.92 0,-18.19 10.85,-32.94 24.24,-32.94z"/>
   <path class="fil26" d="M2432.18 2116.39c-13.33,0 -24.13,14.95 -24.13,33.39 0,11.41 4.13,21.47 10.44,27.5 10.11,-2.99 22.65,-1.97 28.59,-1.22 5.62,-6.11 9.24,-15.61 9.24,-26.28 0,-18.44 -10.8,-33.39 -24.13,-33.39z"/>
   <path class="fil25" d="M2309.53 2182.48c0,0 4.7,-2.32 12.52,-4.3 0.6,-0.15 1.22,-0.3 1.87,-0.45 13.78,-3.17 35.86,-4.81 59.07,7.27 0,0 -30.37,-9.32 -73.45,-2.52z"/>
   <path class="fil25" d="M2395.89 2184.48c0,0 37.77,-20.67 73.46,-2.54 0,0 -27.26,-7.97 -73.46,2.54z"/>
   <path class="fil27" d="M2346.84 2123.12c12.06,0 21.84,13.36 21.84,29.84 0,10.19 -3.74,19.19 -9.44,24.57 -9.15,-2.67 -20.5,-1.76 -25.87,-1.09 -5.09,-5.46 -8.36,-13.95 -8.36,-23.48 0,-16.48 9.78,-29.84 21.84,-29.84z"/>
   <path class="fil27" d="M2433.07 2120.67c-12.16,0 -22.02,13.8 -22.02,30.81 0,10.52 3.77,19.81 9.52,25.37 9.23,-2.76 20.67,-1.82 26.09,-1.13 5.13,-5.64 8.43,-14.41 8.43,-24.24 0,-17.02 -9.86,-30.81 -22.02,-30.81z"/>
   <ellipse class="fil28" cx="2337.31" cy="2139.34" rx="6.21" ry="6.13"/>
   <ellipse class="fil28" cx="2347.09" cy="2151.07" rx="3.01" ry="2.97"/>
   <ellipse class="fil28" cx="2433.9" cy="2150.2" rx="3.01" ry="2.97"/>
   <ellipse class="fil28" cx="2443.41" cy="2138.1" rx="6.21" ry="6.13"/>
  </g>
  <g id="_2048347537008">
   <path class="fil25" d="M2557.42 2065.9c0,0 9.31,-22.46 39.53,-10.19 0,0 -27.41,-3.4 -39.53,10.19z"/>
   <path class="fil25" d="M2698.03 2066.31c0,0 -8.1,-22.9 -39.89,-10.62 0,0 27.14,-2.96 39.89,10.62z"/>
   <path class="fil25" d="M2583.25 2075.07c18.65,0 33.76,25.48 33.76,45.46 0,19.98 -6.03,28.41 -14.21,36.71 -16.56,-5.1 -30.4,-3.31 -40.85,-1.19 -7.53,-8.34 -12.46,-15.9 -12.46,-35.52 0,-19.63 15.11,-45.46 33.76,-45.46z"/>
   <path class="fil0" d="M2584.3 2077.5c17.63,0 31.93,23.61 31.93,42.99 0,19.38 -6.2,28.74 -14.87,36.43 -14.15,-4 -26.42,-3.87 -36.15,-1.96 -7.8,-7.84 -12.85,-20.36 -12.85,-34.47 0,-23.74 14.3,-42.99 31.93,-42.99z"/>
   <path class="fil25" d="M2670.08 2074.3c-18.6,0 -33.68,25.48 -33.68,45.46 0,19.98 6.02,28.41 14.17,36.71 16.52,-5.1 30.22,-3.76 40.6,-1.24 7.51,-8.34 12.59,-15.84 12.59,-35.47 0,-19.63 -15.08,-45.46 -33.68,-45.46z"/>
   <path class="fil0" d="M2669.03 2076.72c-17.59,0 -31.85,23.61 -31.85,42.99 0,19.38 6.19,28.74 14.83,36.43 14.11,-4 26.35,-3.87 36.06,-1.96 7.78,-7.84 12.81,-20.36 12.81,-34.47 0,-23.74 -14.26,-42.99 -31.85,-42.99z"/>
   <path class="fil26" d="M2584.23 2095.89c13.39,0 24.24,14.75 24.24,32.94 0,11.25 -4.15,21.18 -10.48,27.12 -10.16,-2.95 -22.76,-1.94 -28.72,-1.2 -5.65,-6.03 -9.28,-15.4 -9.28,-25.92 0,-18.19 10.85,-32.94 24.24,-32.94z"/>
   <path class="fil26" d="M2668.98 2095c-13.33,0 -24.13,14.95 -24.13,33.39 0,11.41 4.13,21.47 10.44,27.5 10.11,-2.99 22.65,-1.97 28.59,-1.22 5.63,-6.11 9.24,-15.61 9.24,-26.28 0,-18.44 -10.81,-33.39 -24.13,-33.39z"/>
   <path class="fil25" d="M2546.33 2161.08c0,0 4.69,-2.32 12.52,-4.3 0.61,-0.15 1.23,-0.3 1.87,-0.45 13.78,-3.17 35.86,-4.81 59.07,7.27 0,0 -30.37,-9.32 -73.45,-2.52z"/>
   <path class="fil25" d="M2632.69 2163.09c0,0 37.77,-20.67 73.46,-2.54 0,0 -27.26,-7.97 -73.46,2.54z"/>
   <path class="fil27" d="M2583.64 2101.72c12.06,0 21.84,13.36 21.84,29.84 0,10.19 -3.74,19.19 -9.44,24.57 -9.15,-2.67 -20.5,-1.76 -25.87,-1.09 -5.09,-5.46 -8.36,-13.95 -8.36,-23.48 0,-16.48 9.78,-29.84 21.84,-29.84z"/>
   <path class="fil27" d="M2669.87 2099.27c-12.16,0 -22.02,13.8 -22.02,30.81 0,10.52 3.77,19.81 9.52,25.37 9.22,-2.76 20.67,-1.82 26.09,-1.13 5.13,-5.64 8.43,-14.4 8.43,-24.24 0,-17.02 -9.86,-30.81 -22.02,-30.81z"/>
   <ellipse class="fil28" cx="2574.11" cy="2117.94" rx="6.21" ry="6.13"/>
   <ellipse class="fil28" cx="2583.89" cy="2129.68" rx="3.01" ry="2.97"/>
   <ellipse class="fil28" cx="2670.7" cy="2128.81" rx="3.01" ry="2.97"/>
   <ellipse class="fil28" cx="2680.21" cy="2116.71" rx="6.21" ry="6.13"/>
  </g>
  <path class="fil29" d="M2336.5 2232.11c0,0 54.02,50.96 112.63,-2.04 0,0 -52.49,102.94 -112.63,2.04z"/>
  <path class="fil29" d="M2570.12 2184.54c0,0 54.02,50.96 112.63,-2.04 0,0 -52.5,102.94 -112.63,2.04z"/>
  <g id="_2048347531392">
   <path class="fil30" d="M2255.03 2236.87c-1.1,0.4 -2.07,0.67 -2.96,1.1 -3.43,1.69 -4.8,3.65 -4.19,7.62 0.57,3.69 2.18,6.93 4.33,9.92 2.47,3.41 5.49,6.2 9.15,8.34 2.91,1.71 5.95,2.91 9.34,3.13 0.37,0.03 0.75,0.13 1.12,0.22 2.45,0.63 4.87,1.49 7.35,1.87 3.76,0.57 7.53,0.49 11.27,-0.54 2.58,-0.71 5.03,-1.65 7.24,-3.11 4.46,-2.94 7.85,-6.87 10.35,-11.61 3.8,-7.23 4.94,-14.77 3.15,-22.8 -0.81,-3.61 -2.11,-6.96 -4.08,-10.06 -1.48,-2.34 -3.42,-4.29 -6.02,-5.36 -0.8,-0.33 -1.46,-0.56 -1.72,-1.43 -0.32,-1.06 -0.66,-2.11 -1,-3.17 -0.83,-2.59 -1.61,-5.19 -2.5,-7.75 -1.22,-3.54 -2.53,-7.04 -3.79,-10.57 -1.34,-3.76 -2.6,-7.57 -4.84,-10.91 -0.98,-1.46 -2.2,-2.89 -3.6,-3.91 -1.69,-1.23 -3.79,-1.41 -5.87,-0.87 -2.84,0.74 -4.94,2.23 -5.81,5.23 -0.83,2.88 -0.46,5.76 -0.08,8.61 0.27,2.06 0.91,4.07 1.47,6.08 0.53,1.89 1.14,3.76 1.78,5.62 0.69,2.02 1.46,4.02 2.26,6.23 -3.4,-4.05 -6.63,-7.95 -9.93,-11.79 -2.16,-2.5 -4.19,-5.17 -7.19,-6.79 -1.49,-0.8 -3.05,-1.37 -4.81,-1.13 -3.9,0.54 -6,3.18 -7.32,6.51 -1.06,2.68 -0.19,5.34 0.94,7.79 2.42,5.29 5.91,9.9 9.58,14.37 1.46,1.78 2.93,3.56 4.5,5.48 -3.48,0.29 -6.19,1.85 -8,4.52 -1.96,2.88 -1.06,6.06 -0.08,9.13zm-2.66 -1.37c-0.42,-1.64 -0.96,-3.18 -1.2,-4.77 -0.41,-2.74 0.15,-5.3 2.38,-7.17 0.89,-0.75 1.99,-1.24 3.12,-1.91 -0.15,-0.2 -0.35,-0.56 -0.62,-0.86 -3.5,-4.03 -6.62,-8.33 -8.81,-13.22 -1.79,-4 -2.85,-8.12 -2.11,-12.58 0.87,-5.25 5,-8.5 9.2,-9.36 2.58,-0.53 5.07,0.27 7.36,1.61 2.93,1.71 5.19,4.12 7.24,6.76 0.14,0.19 0.31,0.35 0.7,0.43 -0.06,-0.33 -0.14,-0.66 -0.17,-1 -0.26,-3.13 -0.68,-6.27 -0.71,-9.41 -0.04,-4.27 2.3,-7.07 6.17,-8.63 2.61,-1.06 5.29,-1.8 8.12,-0.88 3.12,1.01 5.19,3.28 6.55,6.09 1.65,3.42 3.09,6.94 4.51,10.46 1.39,3.47 2.66,7 3.94,10.51 1.26,3.44 2.48,6.91 3.7,10.37 0.3,0.83 0.64,1.38 1.64,1.7 2.76,0.88 4.48,3.07 6.04,5.37 2.61,3.87 4.18,8.17 4.94,12.73 1.89,11.38 -0.88,21.5 -8.61,30.14 -3.35,3.74 -7.33,6.62 -12.06,8.48 -4.63,1.83 -9.41,2.32 -14.27,1.66 -2.81,-0.38 -5.53,-1.36 -8.31,-2.01 -0.79,-0.18 -1.64,-0.1 -2.45,-0.19 -5.54,-0.63 -10.01,-3.37 -13.88,-7.18 -3.87,-3.8 -6.91,-8.2 -8.72,-13.36 -0.89,-2.52 -1.36,-5.11 -0.6,-7.76 0.81,-2.81 2.86,-4.42 5.44,-5.47 0.5,-0.2 1,-0.37 1.47,-0.55z"/>
   <path class="fil31" d="M2274.77 2264.2c3.25,-3.1 4.11,-6.56 2.23,-10.61 1.05,-0.19 2.07,-0.33 3.07,-0.54 3.16,-0.68 4.7,-2.51 4.61,-5.76 -0.07,-2.42 -0.4,-4.83 -0.63,-7.42 2.13,-0.56 4.43,-1.15 7,-1.82 -3.63,4.18 -4.41,8.86 -3.31,13.97 0.58,-7.89 3.76,-14.5 9.59,-19.79 -2.21,0.95 -4.38,2.01 -6.63,2.84 -3.59,1.32 -7.26,2.37 -11.14,2.28 -2.69,-0.06 -4.61,-1.34 -5.24,-3.47 -0.57,-1.93 0.02,-3.73 1.24,-5.19 0.98,-1.18 2.14,-2.37 3.47,-3.07 3.95,-2.09 8,-4.04 12.09,-5.85 2.3,-1.02 4.8,-1.39 7.36,-1.07 4.01,0.51 6.41,3.06 7.62,6.61 3.2,9.37 2.94,18.62 -1.69,27.53 -4.04,7.8 -10.67,11.86 -19.28,12.76 -3.48,0.36 -6.93,-0.21 -10.37,-1.4z"/>
   <path class="fil31" d="M2296.01 2216.47c-4.19,0.55 -8.15,1.35 -11.79,3.55 -1.33,-4.12 -2.65,-8.15 -3.92,-12.19 -1.17,-3.7 -2.36,-7.39 -3.38,-11.14 -0.89,-3.29 -1.68,-6.62 -2.25,-9.97 -0.34,-2 0.38,-3.88 1.99,-5.27 1.38,-1.18 3.28,-1.1 4.89,0.18 1.91,1.51 3.1,3.56 3.95,5.76 2.59,6.76 5.11,13.54 7.62,20.33 0.92,2.48 1.73,5 2.58,7.5 0.13,0.37 0.19,0.76 0.31,1.24z"/>
   <path class="fil31" d="M2282.21 2221c-3.37,1.78 -6.51,3.7 -8.97,6.73 -1.74,-2.03 -3.5,-3.94 -5.11,-5.97 -4.56,-5.72 -9.11,-11.44 -13.58,-17.24 -1.3,-1.68 -2.44,-3.52 -2.47,-5.8 -0.02,-1.98 0.55,-3.69 2.28,-4.77 1.75,-1.09 3.64,-0.84 5.26,0.21 1.56,1.02 3.15,2.19 4.3,3.62 6.07,7.52 12.02,15.15 18,22.74 0.09,0.11 0.15,0.24 0.3,0.48z"/>
   <path class="fil31" d="M2258.15 2233.48c-0.45,-1.92 0.17,-3.48 1.56,-4.81 3.3,-3.13 7.44,-3.54 10.87,-1 0.31,0.24 0.64,0.75 0.61,1.11 -0.49,6.7 3.71,10.28 9.05,11.34 0.83,0.17 1.34,0.53 1.71,1.27 0.74,1.47 1.37,2.95 1.28,4.65 -0.19,3.61 -2.28,5.43 -5.93,5.14 -2.37,-0.19 -4.48,-0.97 -6.38,-2.48 -3.99,-3.17 -7.85,-6.46 -10.73,-10.72 -0.91,-1.35 -1.53,-2.91 -2.28,-4.38 0.08,-0.04 0.16,-0.08 0.24,-0.12z"/>
   <path class="fil31" d="M2270.98 2262.57c-2.5,0.3 -4.74,-0.06 -6.85,-1.41 -4.07,-2.62 -7.76,-5.63 -10.41,-9.74 -1.38,-2.15 -1.97,-4.51 -1.63,-7.06 0.33,-2.52 1.97,-4.14 4.43,-4.55 0.81,-0.13 1.35,0.11 1.89,0.71 3.61,4.04 7.47,7.83 11.96,10.91 1.07,0.74 2.22,1.41 3.42,1.91 1.82,0.76 2.13,2.38 2.43,3.94 0.3,1.58 -0.33,2.98 -1.77,3.79 -1.09,0.61 -2.3,1 -3.46,1.49z"/>
  </g>
  <g id="_2048347531872">
   <path class="fil30" d="M2744.12 2219.14c1.08,0.4 2.04,0.67 2.92,1.1 3.37,1.69 4.72,3.65 4.12,7.62 -0.56,3.69 -2.14,6.93 -4.26,9.92 -2.43,3.41 -5.4,6.19 -8.99,8.34 -2.87,1.71 -5.85,2.91 -9.19,3.13 -0.37,0.02 -0.74,0.13 -1.11,0.22 -2.41,0.64 -4.78,1.49 -7.23,1.87 -3.7,0.57 -7.4,0.48 -11.08,-0.54 -2.54,-0.71 -4.95,-1.66 -7.12,-3.11 -4.39,-2.94 -7.73,-6.88 -10.18,-11.61 -3.74,-7.23 -4.86,-14.77 -3.1,-22.8 0.79,-3.61 2.08,-6.96 4.02,-10.06 1.46,-2.34 3.37,-4.29 5.92,-5.36 0.79,-0.33 1.44,-0.56 1.69,-1.43 0.31,-1.06 0.65,-2.11 0.98,-3.17 0.81,-2.59 1.59,-5.19 2.46,-7.75 1.2,-3.54 2.49,-7.04 3.73,-10.57 1.31,-3.76 2.56,-7.57 4.76,-10.91 0.96,-1.46 2.16,-2.88 3.54,-3.91 1.67,-1.23 3.72,-1.41 5.77,-0.87 2.8,0.73 4.87,2.23 5.72,5.23 0.82,2.89 0.45,5.76 0.08,8.62 -0.26,2.06 -0.89,4.07 -1.44,6.08 -0.52,1.89 -1.12,3.76 -1.75,5.62 -0.68,2.02 -1.43,4.02 -2.22,6.24 3.35,-4.05 6.52,-7.95 9.77,-11.79 2.12,-2.51 4.12,-5.17 7.07,-6.79 1.47,-0.81 3,-1.37 4.74,-1.13 3.84,0.54 5.9,3.18 7.2,6.51 1.04,2.68 0.18,5.34 -0.92,7.8 -2.38,5.29 -5.81,9.9 -9.43,14.37 -1.43,1.78 -2.87,3.56 -4.43,5.48 3.43,0.28 6.09,1.85 7.88,4.52 1.93,2.89 1.04,6.06 0.07,9.13zm2.62 -1.37c0.41,-1.63 0.95,-3.18 1.18,-4.77 0.4,-2.74 -0.15,-5.29 -2.34,-7.17 -0.87,-0.75 -1.96,-1.24 -3.07,-1.91 0.14,-0.2 0.35,-0.55 0.61,-0.85 3.45,-4.04 6.52,-8.33 8.67,-13.23 1.76,-4 2.8,-8.12 2.07,-12.57 -0.85,-5.26 -4.92,-8.5 -9.05,-9.36 -2.54,-0.53 -4.99,0.27 -7.24,1.61 -2.87,1.71 -5.1,4.12 -7.11,6.76 -0.14,0.18 -0.3,0.35 -0.69,0.43 0.06,-0.33 0.14,-0.66 0.17,-1 0.25,-3.13 0.67,-6.27 0.7,-9.41 0.04,-4.27 -2.26,-7.07 -6.07,-8.64 -2.57,-1.06 -5.2,-1.8 -7.99,-0.88 -3.07,1.02 -5.1,3.28 -6.44,6.1 -1.63,3.42 -3.04,6.94 -4.43,10.46 -1.37,3.47 -2.61,7 -3.88,10.51 -1.24,3.44 -2.44,6.91 -3.64,10.36 -0.29,0.83 -0.63,1.38 -1.61,1.7 -2.72,0.87 -4.41,3.06 -5.94,5.37 -2.57,3.87 -4.11,8.17 -4.86,12.72 -1.86,11.38 0.87,21.5 8.47,30.14 3.3,3.74 7.22,6.63 11.86,8.49 4.55,1.83 9.26,2.31 14.04,1.66 2.76,-0.38 5.44,-1.36 8.17,-2 0.78,-0.19 1.61,-0.1 2.41,-0.19 5.44,-0.63 9.85,-3.37 13.65,-7.18 3.8,-3.81 6.79,-8.2 8.58,-13.36 0.87,-2.52 1.34,-5.11 0.59,-7.76 -0.8,-2.81 -2.81,-4.42 -5.35,-5.47 -0.49,-0.2 -0.99,-0.37 -1.45,-0.55z"/>
   <path class="fil31" d="M2724.7 2246.48c-3.2,-3.1 -4.04,-6.57 -2.19,-10.62 -1.03,-0.18 -2.04,-0.32 -3.03,-0.54 -3.11,-0.69 -4.63,-2.51 -4.54,-5.76 0.07,-2.42 0.4,-4.83 0.63,-7.42 -2.1,-0.56 -4.36,-1.16 -6.88,-1.82 3.57,4.18 4.34,8.85 3.25,13.97 -0.57,-7.89 -3.7,-14.49 -9.44,-19.79 2.17,0.96 4.31,2.01 6.52,2.85 3.53,1.32 7.15,2.37 10.96,2.28 2.65,-0.07 4.53,-1.35 5.15,-3.47 0.57,-1.93 -0.02,-3.73 -1.22,-5.19 -0.97,-1.18 -2.1,-2.37 -3.41,-3.07 -3.89,-2.09 -7.86,-4.04 -11.89,-5.86 -2.26,-1.02 -4.72,-1.39 -7.24,-1.07 -3.94,0.52 -6.3,3.06 -7.49,6.61 -3.15,9.37 -2.89,18.63 1.65,27.54 3.98,7.8 10.5,11.86 18.96,12.76 3.43,0.37 6.81,-0.2 10.2,-1.4z"/>
   <path class="fil31" d="M2703.81 2198.74c4.12,0.55 8.02,1.35 11.59,3.55 1.31,-4.12 2.61,-8.14 3.86,-12.18 1.15,-3.7 2.33,-7.4 3.32,-11.14 0.87,-3.29 1.65,-6.61 2.21,-9.97 0.33,-2 -0.37,-3.88 -1.96,-5.26 -1.36,-1.18 -3.22,-1.1 -4.81,0.18 -1.87,1.51 -3.05,3.56 -3.89,5.76 -2.55,6.76 -5.03,13.54 -7.5,20.33 -0.9,2.48 -1.7,5 -2.54,7.5 -0.12,0.37 -0.19,0.76 -0.3,1.24z"/>
   <path class="fil31" d="M2717.38 2203.28c3.31,1.78 6.41,3.7 8.82,6.74 1.71,-2.03 3.44,-3.95 5.03,-5.97 4.49,-5.72 8.96,-11.44 13.36,-17.24 1.28,-1.69 2.41,-3.52 2.43,-5.81 0.02,-1.98 -0.54,-3.69 -2.24,-4.77 -1.72,-1.09 -3.58,-0.85 -5.17,0.21 -1.54,1.02 -3.09,2.18 -4.23,3.62 -5.97,7.52 -11.82,15.15 -17.7,22.74 -0.09,0.11 -0.15,0.24 -0.3,0.48z"/>
   <path class="fil31" d="M2741.05 2215.76c0.44,-1.92 -0.17,-3.49 -1.54,-4.81 -3.24,-3.13 -7.32,-3.54 -10.69,-1 -0.31,0.23 -0.63,0.75 -0.6,1.11 0.48,6.7 -3.65,10.27 -8.91,11.34 -0.82,0.17 -1.31,0.53 -1.68,1.27 -0.72,1.47 -1.35,2.95 -1.26,4.65 0.19,3.61 2.25,5.43 5.83,5.14 2.34,-0.19 4.41,-0.97 6.28,-2.47 3.93,-3.17 7.73,-6.46 10.56,-10.72 0.9,-1.36 1.51,-2.92 2.25,-4.38 -0.08,-0.04 -0.16,-0.08 -0.24,-0.12z"/>
   <path class="fil31" d="M2728.43 2244.84c2.46,0.3 4.67,-0.06 6.74,-1.41 4,-2.61 7.63,-5.62 10.24,-9.74 1.36,-2.15 1.94,-4.5 1.61,-7.06 -0.33,-2.52 -1.94,-4.14 -4.36,-4.54 -0.8,-0.13 -1.33,0.11 -1.86,0.71 -3.56,4.04 -7.35,7.83 -11.76,10.91 -1.06,0.73 -2.18,1.41 -3.36,1.91 -1.79,0.75 -2.1,2.37 -2.39,3.94 -0.29,1.59 0.33,2.98 1.74,3.79 1.07,0.61 2.26,1 3.4,1.49z"/>
  </g>
  <ellipse class="fil11" cx="2085.37" cy="860.69" rx="11.62" ry="13.32"/>
  <ellipse class="fil11" transform="matrix(0.85819 -0.444279 0.444279 0.85819 2105.96 902.102)" rx="15.79" ry="24.81"/>
 </g>
</svg>
